<?xml version="1.0" standalone="no"?><!DOCTYPE svg PUBLIC "-//W3C//DTD SVG 1.1//EN" "http://www.w3.org/Graphics/SVG/1.1/DTD/svg11.dtd"><svg t="1483285242300" class="icon" style="" viewBox="0 0 1024 1024" version="1.1" xmlns="http://www.w3.org/2000/svg" p-id="2912" xmlns:xlink="http://www.w3.org/1999/xlink" width="200" height="200"><defs><style type="text/css"></style></defs><path d="M689.632 95.759c-5.302-35.791-35.791-55.675-91.466-59.652-7.954-1.326-18.558-1.326-30.489-1.326-25.187 0-54.351 2.652-83.514 6.627-42.42 5.302-82.189 14.581-111.35 26.511-51.698 19.884-75.559 47.722-71.582 82.189 5.302 35.791 35.791 55.675 91.466 59.652 9.28 1.326 19.884 1.326 31.814 1.326 25.187 0 54.351-2.652 83.514-6.627 42.42-5.302 82.189-14.581 111.35-26.511 51.698-19.884 75.559-46.397 70.257-82.189z" fill="#640F13" p-id="2913"></path><path d="M526.581 201.809c96.769 0 153.771 57.001 186.911 147.143 45.071-22.535 100.746-41.093 137.863-41.093 17.233 0 30.489 3.977 35.791 14.581 19.884 35.791-13.257 90.142-70.257 116.653 0 0 66.281 35.791 5.302 95.443 0 0 57.001 49.047-53.025 106.048-10.605 5.302-21.21 9.28-31.814 13.257 18.558 13.257 34.465 23.861 50.373 31.814 33.14 18.558 42.42 62.304 18.558 91.466-9.28 10.605-18.558 21.21-27.838 30.489 0 0 58.327 42.42 25.187 79.536-5.302 6.627-13.257 9.28-21.21 9.28-30.489 0-68.932-35.791-68.932-35.791-9.28 5.302-17.233 10.605-26.511 15.907 1.326 0 1.326-1.326 1.326-1.326s53.025 84.838 3.977 92.793c-2.652 0-6.627 1.326-9.28 1.326-46.397 0-86.164-57.001-86.164-57.001-13.257 3.977-25.187 6.627-35.791 7.954-5.302 1.326-10.605 1.326-15.907 1.326-34.465 0-66.281-19.884-80.862-51.698-26.511-60.978-41.093-115.327-45.071-165.7-17.233 5.302-29.164 7.954-45.071 7.954-9.28 0-19.884-1.326-33.14-3.977-128.583-23.861-86.164-90.142-86.164-90.142-79.536-39.769-41.093-96.769-41.093-96.769-64.955-9.28-94.118-42.42-84.838-83.514 6.627-27.838 50.373-41.093 103.397-41.093 30.489 0 63.629 3.977 95.443 13.257 9.28-91.466 43.745-189.562 169.678-204.144 9.28-3.977 19.884-3.977 29.164-3.977M526.581 167.342c-10.605 0-22.535 0-33.14 1.326-107.374 11.93-173.654 78.211-194.864 196.189-22.535-3.977-45.071-6.627-66.281-6.627-76.884 0-125.933 25.187-136.537 67.606-6.627 26.511-1.326 51.698 13.257 72.909 9.28 14.581 27.838 31.814 62.304 43.745-1.326 9.28 0 19.884 2.652 30.489 5.302 22.535 19.884 41.093 41.093 57.001-1.326 11.93-1.326 26.511 5.302 41.093 14.581 34.465 53.025 57.001 114.002 67.606 15.907 2.652 27.838 3.977 39.769 3.977 5.302 0 10.605 0 15.907-1.326 7.954 46.397 22.535 92.793 42.42 139.189 19.884 43.745 63.629 71.582 111.35 71.582 6.627 0 14.581-1.326 21.21-1.326 5.302-1.326 11.93-2.652 17.233-3.977 18.558 21.21 54.351 53.025 98.096 53.025 5.302 0 9.28 0 14.581-1.326 19.884-3.977 35.791-14.581 43.745-31.814 6.627-14.581 6.627-31.814 2.652-49.047 11.93 5.302 25.187 9.28 38.444 9.28 18.558 0 34.465-6.627 46.397-19.884 14.581-15.907 21.21-34.465 18.558-54.351-1.326-18.558-11.93-35.791-21.21-49.047 2.652-2.652 5.302-5.302 7.954-9.28 17.233-21.21 23.861-49.047 19.884-76.884-5.302-26.511-21.21-50.373-43.745-63.629 39.769-23.861 60.978-51.698 64.955-82.189 1.326-15.907-1.326-29.164-6.627-39.769 17.233-23.861 18.558-45.071 17.233-60.978-1.326-11.93-5.302-21.21-10.605-30.489 25.187-19.884 43.745-45.071 51.698-70.257 7.954-25.187 5.302-49.047-5.302-68.932-7.954-14.581-26.511-30.489-64.955-30.489-39.769 0-87.49 17.233-119.306 30.489-46.397-87.49-115.327-133.887-208.121-133.887z" fill="#640F13" p-id="2914"></path><path d="M445.719 494.767c6.627 3.977 13.257 6.627 19.884 9.28 41.093 13.257 83.514 9.28 117.98-10.605 22.535 33.14 45.071 59.652 67.606 84.838 1.326-1.326 102.073-91.466 68.932-204.144s-100.746-185.584-225.353-171.003c-140.514 15.907-168.352 135.212-172.329 233.307-2.652 99.42 91.466 181.609 91.466 181.609h1.326c5.302-50.373 17.233-91.466 30.489-123.282z" fill="#C3996B" p-id="2915"></path><path d="M413.904 626.002c-2.652 0-3.977-1.326-5.302-2.652-3.977-3.977-96.769-86.164-92.793-186.911 6.627-149.793 64.955-229.329 178.957-241.261 116.653-13.257 196.189 46.397 234.633 177.632 34.465 116.653-67.606 208.121-71.582 212.098-3.977 2.652-7.954 2.652-11.93 0-22.535-23.861-45.071-50.373-64.955-79.536-37.117 18.558-79.536 21.21-117.98 7.954-3.977-1.326-7.954-2.652-13.257-5.302-13.257 35.791-22.535 72.909-26.511 111.35 0 3.977-2.652 6.627-6.627 7.954h-1.326c0-1.326-1.326-1.326-1.326-1.326zM526.581 209.762c-9.28 0-18.558 0-29.164 1.326-104.723 11.93-159.073 86.164-164.374 225.353-2.652 74.235 53.025 140.514 76.884 164.374 5.302-38.444 14.581-74.235 29.164-108.7 1.326-2.652 2.652-3.977 5.302-3.977 2.652-1.326 3.977 0 6.627 0 6.627 3.977 13.257 6.627 18.558 7.954 37.117 11.93 76.884 9.28 111.35-10.605 3.977-2.652 7.954-1.326 10.605 2.652 18.558 27.838 39.769 53.025 60.978 76.884 21.21-21.21 87.49-98.096 60.978-189.562-33.14-111.35-94.118-165.7-186.911-165.7z" fill="#640F13" p-id="2916"></path><path d="M424.51 176.622c-10.605 0-19.884 0-29.164-1.326-23.861-2.652-57.001-7.954-60.978-31.814-2.652-23.861 26.511-38.444 50.373-46.397 27.838-10.605 64.955-18.558 104.723-23.861 39.769-5.302 78.211-6.627 107.374-5.302 23.861 2.652 57.001 7.954 60.978 31.814 2.652 23.861-26.511 38.444-50.373 46.397-27.838 10.605-64.955 18.558-104.723 23.861-27.838 5.302-54.351 6.627-78.211 6.627zM375.463 139.504c18.558 3.977 60.978 7.954 123.282-1.326 62.304-7.954 102.073-22.535 119.306-31.814-18.558-3.977-60.978-7.954-123.282 1.326-62.304 7.954-103.397 22.535-119.306 31.814z" fill="#FFDF00" p-id="2917"></path><path d="M574.304 327.741s-43.745 18.558-153.771 7.954c0 0-15.907 76.884 17.233 155.097 9.28 5.302 18.558 9.28 27.838 13.257 42.42 14.581 87.49 7.954 123.282-13.257 9.28-34.465 14.581-94.118-14.581-163.051z" fill="#FCE8D0" p-id="2918"></path><path d="M513.326 519.954c-17.233 0-33.14-2.652-50.373-7.954-10.605-3.977-19.884-7.954-29.164-13.257l-3.977-3.977c-33.14-79.536-18.558-156.42-18.558-160.398 1.326-3.977 5.302-6.627 9.28-6.627 106.048 10.605 148.468-7.954 149.793-7.954 2.652-1.326 3.977-1.326 6.627 0s3.977 2.652 3.977 3.977c30.489 70.257 25.187 129.909 15.907 168.352 0 2.652-1.326 3.977-3.977 5.302-23.861 14.581-51.698 22.535-79.536 22.535zM444.394 485.489c7.954 3.977 15.907 7.954 23.861 10.605 38.444 13.257 79.536 9.28 114.002-10.605 7.954-34.465 10.605-86.164-13.257-147.143-17.233 5.302-60.978 13.257-141.841 6.627-2.652 21.21-6.627 79.536 17.233 140.514z" fill="#640F13" p-id="2919"></path><path d="M584.909 493.442c-34.465 19.884-76.884 23.861-117.98 10.605-6.627-2.652-13.257-5.302-19.884-9.28-31.814 76.884-58.327 206.796 15.907 372.496 15.907 37.117 57.001 58.327 96.769 50.373 63.629-11.93 164.374-45.071 243.911-143.166 23.861-29.164 14.581-72.909-18.558-91.466-51.698-29.164-129.909-86.164-200.165-189.562z" fill="#F1F1F2" p-id="2920"></path><path d="M541.164 928.241c-37.117 0-71.582-21.21-87.49-57.001-74.235-167.027-49.047-298.261-15.907-379.123 1.326-2.652 2.652-3.977 5.302-3.977 2.652-1.326 3.977 0 6.627 0 6.627 3.977 13.257 6.627 18.558 7.954 37.117 11.93 76.884 9.28 111.35-10.605 3.977-2.652 7.954-1.326 10.605 2.652 70.257 102.073 147.143 157.747 198.842 186.911 18.558 10.605 30.489 27.838 34.465 47.722 3.977 19.884-1.326 39.769-14.581 55.675-79.536 96.769-180.282 132.561-250.54 145.817-5.302 2.652-10.605 3.977-17.233 3.977zM451.022 506.698c-30.489 78.211-50.373 201.492 18.558 357.915 14.581 33.14 51.698 53.025 87.49 46.397 67.606-11.93 164.374-46.397 239.935-140.514 9.28-11.93 13.257-26.511 10.605-42.42-2.652-15.907-11.93-29.164-26.511-37.117-51.698-29.164-128.583-86.164-200.165-186.911-37.117 18.558-79.536 21.21-117.98 7.954-3.977-1.326-7.954-2.652-11.93-5.302z" fill="#640F13" p-id="2921"></path><path d="M885.822 319.786c-18.558-31.814-106.048-5.302-172.329 27.838 2.652 7.954 6.627 17.233 9.28 26.511 33.14 112.677-67.606 202.818-68.932 204.144 29.164 30.489 57.001 54.351 83.514 74.235 10.605-3.977 21.21-7.954 33.14-13.257 110.026-57.001 53.025-106.048 53.025-106.048 60.978-58.327-5.302-95.443-5.302-95.443 54.351-26.511 87.49-82.189 67.606-117.98z" fill="#FFF5CA" p-id="2922"></path><path d="M734.702 659.143c-1.326 0-3.977 0-5.302-1.326-29.164-21.21-57.001-46.397-83.514-74.235-1.326-1.326-2.652-3.977-2.652-6.627s1.326-3.977 2.652-5.302c1.326-1.326 98.096-88.816 67.606-194.864-2.652-9.28-5.302-17.233-7.954-25.187-1.326-3.977 0-7.954 3.977-10.605 57.001-27.838 160.398-64.955 184.259-23.861 7.954 14.581 9.28 30.489 3.977 49.047-9.28 27.838-33.14 55.675-64.955 72.909 9.28 7.954 19.884 21.21 22.535 38.444 2.652 18.558-5.302 37.117-22.535 55.675 5.302 7.954 13.257 21.21 11.93 38.444-2.652 26.511-27.838 51.698-71.582 74.235-10.605 5.302-21.21 9.28-34.465 13.257h-3.977zM664.445 578.281c23.861 23.861 47.722 45.071 72.909 63.629 10.605-3.977 18.558-6.627 27.838-11.93 38.444-19.884 60.978-41.093 63.629-62.304 2.652-18.558-11.93-30.489-11.93-30.489-1.326-1.326-2.652-3.977-2.652-6.627s1.326-3.977 2.652-6.627c17.233-15.907 25.187-31.814 22.535-46.397-2.652-21.21-26.511-34.465-26.511-34.465-2.652-1.326-3.977-3.977-3.977-7.954 0-2.652 1.326-5.302 5.302-6.627 33.14-14.581 59.652-42.42 68.932-68.932 2.652-9.28 5.302-22.535-2.652-35.791-11.93-19.884-80.862-7.954-155.097 27.838 2.652 6.627 3.977 13.257 6.627 19.884 27.838 100.746-45.071 184.259-67.606 206.796z" fill="#640F13" p-id="2923"></path><path d="M416.557 610.096c0 2.652-1.326 5.302-1.326 7.954h-1.326s-94.118-82.189-90.142-180.282c0-10.605 1.326-19.884 2.652-30.489-88.816-25.187-189.562-14.581-198.842 27.838-9.28 41.093 19.884 74.235 84.838 83.514 0 0-38.444 57.001 41.093 96.769 0 0-42.42 67.606 86.164 90.142 35.791 6.627 50.373 3.977 78.211-3.977-5.302-33.14-3.977-63.629-1.326-91.466z" fill="#FFF5CA" p-id="2924"></path><path d="M371.486 717.469c-9.28 0-21.21-1.326-34.465-3.977-51.698-9.28-83.514-27.838-95.443-53.025-7.954-17.233-3.977-33.14 0-42.42-25.187-14.581-39.769-31.814-45.071-51.698-3.977-17.233 0-31.814 2.652-42.42-33.14-6.627-58.327-19.884-71.582-39.769-10.605-14.581-13.257-33.14-9.28-53.025 2.652-11.93 10.605-22.535 23.861-30.489 38.444-22.535 114.002-23.861 185.584-3.977 3.977 1.326 6.627 5.302 6.627 9.28-1.326 10.605-1.326 19.884-2.652 30.489-2.652 76.884 57.001 144.491 78.211 165.7 1.326-1.326 3.977-2.652 6.627-2.652 3.977 0 7.954 3.977 7.954 9.28-3.977 30.489-3.977 60.978 0 90.142 0 3.977-2.652 7.954-6.627 9.28-15.907 6.627-29.164 9.28-46.397 9.28zM230.971 401.974c-33.14 0-60.978 5.302-79.536 15.907-9.28 5.302-14.581 11.93-15.907 19.884-3.977 14.581-1.326 27.838 6.627 39.769 11.93 17.233 37.117 29.164 71.582 34.465 2.652 0 5.302 2.652 6.627 5.302 1.326 2.652 1.326 5.302-1.326 7.954 0 0-11.93 18.558-6.627 39.769 3.977 17.233 19.884 33.14 43.745 45.071 2.652 1.326 3.977 2.652 3.977 5.302s0 5.302-1.326 6.627c0 0-10.605 17.233-2.652 34.465 9.28 19.884 37.117 34.465 83.514 43.745 31.814 5.302 46.397 3.977 67.606-2.652-2.652-23.861-2.652-49.047 0-72.909-11.93-10.605-95.443-90.142-91.466-186.911 0-7.954 1.326-15.907 1.326-23.861-29.164-9.28-58.327-11.93-86.164-11.93z" fill="#640F13" p-id="2925"></path><path d="M443.068 392.694c0 9.518 7.715 17.233 17.233 17.233s17.233-7.715 17.233-17.233c0-9.518-7.715-17.233-17.233-17.233-9.518 0-17.233 7.715-17.233 17.233z" fill="#640F13" p-id="2926"></path><path d="M526.581 392.694c0 9.518 7.715 17.233 17.233 17.233s17.233-7.715 17.233-17.233c0-9.518-7.715-17.233-17.233-17.233-9.518 0-17.233 7.715-17.233 17.233z" fill="#640F13" p-id="2927"></path><path d="M509.348 480.186c-30.489 0-38.444-21.21-39.769-22.535-1.326-3.977 0-9.28 5.302-10.605 3.977-1.326 9.28 0 10.605 5.302 0 1.326 5.302 11.93 23.861 11.93s23.861-11.93 23.861-11.93c1.326-3.977 6.627-6.627 10.605-3.977 3.977 1.326 6.627 6.627 5.302 10.605-1.326-1.326-10.605 21.21-39.769 21.21z" fill="#640F13" p-id="2928"></path><path d="M594.189 909.682s45.071 64.955 94.118 57.001c50.373-7.954-3.977-92.793-3.977-92.793s-54.351 27.838-90.142 35.791z" fill="#FCE8D0" p-id="2929"></path><path d="M679.027 975.962c-50.373 0-90.142-58.327-92.793-60.978-1.326-2.652-1.326-5.302-1.326-7.954 1.326-2.652 2.652-3.977 5.302-5.302 34.465-7.954 88.816-35.791 88.816-35.791 3.977-2.652 7.954-1.326 10.605 2.652 3.977 5.302 35.791 58.327 22.535 87.49-2.652 6.627-9.28 15.907-25.187 18.558-1.326 1.326-3.977 1.326-7.954 1.326zM607.443 914.985c13.257 17.233 45.071 49.047 79.536 43.745 9.28-1.326 11.93-5.302 13.257-7.954 6.627-14.581-6.627-45.071-18.558-66.281-14.581 6.627-46.397 22.535-74.235 30.489z" fill="#640F13" p-id="2930"></path><path d="M775.796 806.285c-1.326 0-1.326 0 0 0-21.21 21.21-43.745 38.444-64.955 53.025 0 0 62.304 57.001 90.142 26.511 31.814-37.117-25.187-79.536-25.187-79.536z" fill="#FCE8D0" p-id="2931"></path><path d="M778.447 901.728c-33.14 0-72.909-35.791-74.235-37.117s-2.652-3.977-2.652-6.627 1.326-5.302 3.977-6.627c22.535-14.581 45.071-31.814 63.629-51.698 2.652-2.652 5.302-2.652 7.954-2.652 1.326 0 1.326 0 2.652 1.326s35.791 26.511 38.444 57.001c1.326 13.257-2.652 23.861-11.93 34.465-7.954 9.28-17.233 11.93-27.838 11.93zM724.098 859.309c17.233 13.257 53.025 38.444 70.257 19.884 6.627-6.627 9.28-13.257 7.954-21.21-1.326-15.907-15.907-31.814-26.511-41.093-15.907 15.907-34.465 30.489-51.698 42.42z" fill="#640F13" p-id="2932"></path><path d="M348.156 144.784c0 0 0 0.001 0 0.001-1.535 4.115 2.225 9.319 8.397 11.622 6.174 2.304 12.422 0.834 13.958-3.281 0 0 0-0.001 0-0.001 0 0 0-0.001 0-0.001 1.535-4.115-2.225-9.319-8.397-11.622-6.174-2.304-12.422-0.834-13.958 3.281s0 0.001 0 0.001z" fill="#FFFFFF" p-id="2933"></path><path d="M185.901 453.673c0 13.179 18.992 23.861 42.42 23.861s42.42-10.683 42.42-23.861c0-13.179-18.992-23.861-42.42-23.861-23.427 0-42.42 10.683-42.42 23.861z" fill="#FFFFFF" p-id="2934"></path><path d="M249.53 554.42c0 0 0 0 0 0 0 16.107 15.431 29.164 34.465 29.164 19.035 0 34.465-13.056 34.465-29.164 0 0 0 0 0 0 0 0 0 0 0 0 0-16.107-15.431-29.164-34.465-29.164-19.035 0-34.465 13.056-34.465 29.164s0 0 0 0z" fill="#FFFFFF" p-id="2935"></path><path d="M318.462 648.537c0 0 0 0 0 0 0 11.713 11.869 21.21 26.511 21.21 14.642 0 26.511-9.495 26.511-21.21 0 0 0 0 0 0 0 0 0 0 0 0 0-11.713-11.869-21.21-26.511-21.21-14.642 0-26.511 9.495-26.511 21.21s0 0 0 0z" fill="#FFFFFF" p-id="2936"></path><path d="M754.045 397.793c4.595 13.903 25.79 19.398 47.339 12.273s35.291-24.17 30.695-38.071c-4.595-13.903-25.79-19.398-47.339-12.273-21.55 7.123-35.291 24.17-30.695 38.071z" fill="#FFFFFF" p-id="2937"></path><path d="M741.329 486.813c0 14.642 13.651 26.511 30.489 26.511s30.489-11.869 30.489-26.511c0-14.642-13.651-26.511-30.489-26.511-16.838 0-30.489 11.869-30.489 26.511z" fill="#FFFFFF" p-id="2938"></path><path d="M720.826 584.052c0 0 0 0 0 0 2.719 12.145 18.823 18.878 35.97 15.038 17.147-3.84 28.841-16.797 26.122-28.942 0 0 0 0 0 0 0 0 0 0 0 0-2.719-12.145-18.823-18.878-35.97-15.038-17.147 3.84-28.841 16.797-26.122 28.942s0 0 0 0z" fill="#FFFFFF" p-id="2939"></path><path d="M458.975 672.398s43.745-5.302 58.327-30.489c0 0 38.444 59.652 17.233 76.884s-59.652-9.28-75.559-46.397z" fill="#FCE8D0" p-id="2940"></path><path d="M518.627 732.051c-3.977 0-7.954 0-11.93-1.326-22.535-6.627-45.071-27.838-55.675-54.351-1.326-2.652-1.326-5.302 0-7.954 1.326-2.652 3.977-3.977 6.627-3.977 10.605-1.326 42.42-9.28 51.698-26.511 1.326-2.652 3.977-3.977 6.627-3.977s5.302 1.326 6.627 3.977c6.627 10.605 42.42 67.606 15.907 87.49-3.977 3.977-11.93 6.627-19.884 6.627zM472.231 679.027c9.28 17.233 25.187 31.814 39.769 35.791 7.954 1.326 13.257 1.326 18.558-2.652 7.954-6.627-1.326-33.14-13.257-55.675-13.257 13.257-33.14 18.558-45.071 22.535z" fill="#640F13" p-id="2941"></path><path d="M566.351 624.677s43.745 9.28 66.281-19.884c0 0 15.907 79.536-21.21 84.838-35.791 6.627-45.071-64.955-45.071-64.955z" fill="#FCE8D0" p-id="2942"></path><path d="M606.118 698.911c-6.627 0-13.257-2.652-18.558-6.627-22.535-17.233-29.164-60.978-30.489-66.281 0-2.652 0-5.302 2.652-6.627 1.326-1.326 5.302-2.652 7.954-2.652 0 0 38.444 7.954 57.001-17.233 2.652-2.652 5.302-3.977 7.954-2.652 2.652 1.326 5.302 2.652 6.627 6.627 1.326 5.302 10.605 55.675-6.627 80.862-5.302 7.954-11.93 11.93-21.21 13.257-1.326 1.326-2.652 1.326-5.302 1.326zM575.629 635.282c3.977 14.581 10.605 37.117 21.21 45.071 3.977 2.652 6.627 3.977 11.93 2.652 3.977-1.326 7.954-2.652 10.605-6.627 7.954-11.93 7.954-35.791 6.627-53.025-17.233 10.605-37.117 11.93-50.373 11.93z" fill="#640F13" p-id="2943"></path><path d="M785.074 683.003c-7.954-3.977-41.093-26.511-50.373-31.814-13.257 18.558-7.954 42.42 5.302 72.909 18.558 41.093-42.42 71.582-60.978 50.373-25.187-30.489-72.909-26.511-79.536 19.884s-34.465 71.582-91.466 57.001c-58.327-15.907-71.582-54.351-71.582-54.351h-1.326c6.627 22.535 15.907 46.397 26.511 71.582 15.907 37.117 57.001 58.327 96.769 50.373 64.955-13.257 165.7-46.397 245.236-144.491 23.861-29.164 14.581-72.909-18.558-91.466z" fill="#DBDCDD" p-id="2944"></path><path d="M541.164 928.241c-37.117 0-71.582-21.21-87.49-57.001-74.235-167.027-49.047-298.261-15.907-379.123 1.326-2.652 2.652-3.977 5.302-3.977 2.652-1.326 3.977 0 6.627 0 6.627 3.977 13.257 6.627 18.558 7.954 37.117 11.93 76.884 9.28 111.35-10.605 3.977-2.652 7.954-1.326 10.605 2.652 70.257 102.073 147.143 157.747 198.842 186.911 18.558 10.605 30.489 27.838 34.465 47.722 3.977 19.884-1.326 39.769-14.581 55.675-79.536 96.769-180.282 132.561-250.54 145.817-5.302 2.652-10.605 3.977-17.233 3.977zM451.022 506.698c-30.489 78.211-50.373 201.492 18.558 357.915 14.581 33.14 51.698 53.025 87.49 46.397 67.606-11.93 164.374-46.397 239.935-140.514 9.28-11.93 13.257-26.511 10.605-42.42-2.652-15.907-11.93-29.164-26.511-37.117-51.698-29.164-128.583-86.164-200.165-186.911-37.117 18.558-79.536 21.21-117.98 7.954-3.977-1.326-7.954-2.652-11.93-5.302z" fill="#640F13" p-id="2945"></path><path d="M370.159 400.65s1.326 78.211 75.559 95.443l-30.489 121.956c0-1.326-135.212-106.048-45.071-217.399zM584.909 493.442s67.606-25.187 62.304-136.537c0 0 96.769 78.211 50.373 149.793l-45.071 71.582-67.606-84.838z" fill="#B18C62" p-id="2946"></path><path d="M413.904 626.002c-2.652 0-3.977-1.326-5.302-2.652-3.977-3.977-96.769-86.164-92.793-186.911 6.627-149.793 64.955-229.329 178.957-241.261 116.653-13.257 196.189 46.397 234.633 177.632 34.465 116.653-67.606 208.121-71.582 212.098-3.977 2.652-7.954 2.652-11.93 0-22.535-23.861-45.071-50.373-64.955-79.536-37.117 18.558-79.536 21.21-117.98 7.954-3.977-1.326-7.954-2.652-13.257-5.302-13.257 35.791-22.535 72.909-26.511 111.35 0 3.977-2.652 6.627-6.627 7.954h-1.326c0-1.326-1.326-1.326-1.326-1.326zM526.581 209.762c-9.28 0-18.558 0-29.164 1.326-104.723 11.93-159.073 86.164-164.374 225.353-2.652 74.235 53.025 140.514 76.884 164.374 5.302-38.444 14.581-74.235 29.164-108.7 1.326-2.652 2.652-3.977 5.302-3.977 2.652-1.326 3.977 0 6.627 0 6.627 3.977 13.257 6.627 18.558 7.954 37.117 11.93 76.884 9.28 111.35-10.605 3.977-2.652 7.954-1.326 10.605 2.652 18.558 27.838 39.769 53.025 60.978 76.884 21.21-21.21 87.49-98.096 60.978-189.562-33.14-111.35-94.118-165.7-186.911-165.7z" fill="#640F13" p-id="2947"></path><path d="M513.326 519.954c-17.233 0-33.14-2.652-50.373-7.954-10.605-3.977-19.884-7.954-29.164-13.257l-3.977-3.977c-33.14-79.536-18.558-156.42-18.558-160.398 1.326-3.977 5.302-6.627 9.28-6.627 106.048 10.605 148.468-7.954 149.793-7.954 2.652-1.326 3.977-1.326 6.627 0s3.977 2.652 3.977 3.977c30.489 70.257 25.187 129.909 15.907 168.352 0 2.652-1.326 3.977-3.977 5.302-23.861 14.581-51.698 22.535-79.536 22.535zM444.394 485.489c7.954 3.977 15.907 7.954 23.861 10.605 38.444 13.257 79.536 9.28 114.002-10.605 7.954-34.465 10.605-86.164-13.257-147.143-17.233 5.302-60.978 13.257-141.841 6.627-2.652 21.21-6.627 79.536 17.233 140.514z" fill="#640F13" p-id="2948"></path><path d="M417.326 287.811c0 0 0 0 0 0 4.914 9.82 27.474 8.486 50.39-2.979 22.916-11.466 37.509-28.722 32.596-38.543 0 0 0 0 0 0 0 0 0 0 0 0-4.914-9.82-27.474-8.486-50.39 2.979-22.916 11.466-37.509 28.722-32.596 38.543s0 0 0 0z" fill="#D7B492" p-id="2949"></path></svg>